<svg width="24" height="24" viewBox="0 0 24 24" fill="none" xmlns="http://www.w3.org/2000/svg">
<path d="M12.1656 14.998C12.3603 14.9983 12.549 14.9305 12.699 14.8063L17.699 10.6396C17.8691 10.4982 17.9762 10.2949 17.9965 10.0746C18.0168 9.8542 17.9487 9.6348 17.8073 9.46462C17.6658 9.29444 17.4626 9.18742 17.2422 9.1671C17.0219 9.14678 16.8025 9.21484 16.6323 9.35628L12.1656 13.0896L7.69896 9.48962C7.61372 9.4204 7.51564 9.3687 7.41035 9.33751C7.30507 9.30632 7.19466 9.29624 7.08547 9.30785C6.97628 9.31947 6.87046 9.35255 6.7741 9.4052C6.67773 9.45784 6.59272 9.52901 6.52396 9.61462C6.44764 9.7003 6.38984 9.80082 6.35418 9.90989C6.31852 10.0189 6.30577 10.1342 6.31672 10.2484C6.32767 10.3626 6.36209 10.4734 6.41783 10.5737C6.47357 10.674 6.54941 10.7617 6.64062 10.8313L11.6406 14.8563C11.7949 14.9609 11.9797 15.0108 12.1656 14.998Z" fill="#4F4F4F"/>
</svg>
