<svg width="25" height="24" viewBox="0 0 25 24" fill="none" xmlns="http://www.w3.org/2000/svg">
<path fill-rule="evenodd" clip-rule="evenodd" d="M11.575 4.25738C10.7846 4.89874 10.2925 5.9363 10.1472 7.62434C10.1116 8.03702 9.74829 8.34276 9.3356 8.30722C8.92291 8.27169 8.61717 7.90833 8.65271 7.49564C8.81735 5.58368 9.4053 4.08624 10.6299 3.0926C11.8338 2.11574 13.5163 1.73999 15.6099 1.73999H15.7399C18.0491 1.73999 19.8609 2.19778 21.0765 3.41341C22.2922 4.62904 22.7499 6.44081 22.7499 8.74999V15.27C22.7499 17.5792 22.2922 19.3909 21.0765 20.6066C19.8609 21.8222 18.0491 22.28 15.7399 22.28H15.6099C13.5315 22.28 11.8591 21.9093 10.6577 20.9481C9.43457 19.9697 8.83885 18.4941 8.66318 16.6096C8.62474 16.1972 8.92791 15.8317 9.34033 15.7932C9.75276 15.7548 10.1183 16.058 10.1567 16.4704C10.311 18.1259 10.8053 19.1453 11.5947 19.7768C12.4058 20.4257 13.6684 20.78 15.6099 20.78H15.7399C17.9008 20.78 19.219 20.3428 20.0159 19.5459C20.8127 18.749 21.2499 17.4308 21.2499 15.27V8.74999C21.2499 6.58917 20.8127 5.27094 20.0159 4.47407C19.219 3.6772 17.9008 3.23999 15.7399 3.23999H15.6099C13.6536 3.23999 12.3861 3.59924 11.575 4.25738Z" fill="#7D7D7D"/>
<path fill-rule="evenodd" clip-rule="evenodd" d="M1.75 12C1.75 11.5858 2.08579 11.25 2.5 11.25H15.38C15.7942 11.25 16.13 11.5858 16.13 12C16.13 12.4142 15.7942 12.75 15.38 12.75H2.5C2.08579 12.75 1.75 12.4142 1.75 12Z" fill="#7D7D7D"/>
<path fill-rule="evenodd" clip-rule="evenodd" d="M12.6196 8.11966C12.9125 7.82677 13.3873 7.82677 13.6802 8.11966L17.0302 11.4697C17.3231 11.7626 17.3231 12.2374 17.0302 12.5303L13.6802 15.8803C13.3873 16.1732 12.9125 16.1732 12.6196 15.8803C12.3267 15.5874 12.3267 15.1126 12.6196 14.8197L15.4392 12L12.6196 9.18032C12.3267 8.88743 12.3267 8.41256 12.6196 8.11966Z" fill="#7D7D7D"/>
</svg>
