<svg width="24" height="24" viewBox="0 0 24 24" fill="none" xmlns="http://www.w3.org/2000/svg">
<path fill-rule="evenodd" clip-rule="evenodd" d="M21.9378 5.54939C22.2001 5.62502 22.4006 5.83723 22.4613 6.10342C22.6565 6.96025 22.75 7.91799 22.75 9.00003V15C22.75 17.5747 22.2395 19.5693 20.9127 20.908C20.7723 21.0497 20.5812 21.1296 20.3817 21.13C20.1822 21.1305 19.9907 21.0514 19.8497 20.9104L13.4697 14.5304C13.329 14.3897 13.25 14.1989 13.25 14C13.25 13.8011 13.329 13.6104 13.4697 13.4697L21.1997 5.73971C21.3927 5.54666 21.6754 5.47376 21.9378 5.54939ZM15.0607 14L20.3217 19.2611C20.9289 18.3252 21.25 16.9643 21.25 15V9.00003C21.25 8.5927 21.2356 8.21131 21.2073 7.85337L15.0607 14Z" fill="#7D7D7D"/>
<path fill-rule="evenodd" clip-rule="evenodd" d="M4.15533 4.15533C3.2398 5.07086 2.75 6.57397 2.75 9V15C2.75 16.9167 3.05795 18.2629 3.64147 19.1925C4.14893 20.001 4.90987 20.5652 6.04287 20.8965L20.8965 6.04288C20.5653 4.90989 20.001 4.14894 19.1925 3.64148C18.2629 3.05795 16.9167 2.75 15 2.75H9C6.57397 2.75 5.07086 3.2398 4.15533 4.15533ZM3.09467 3.09467C4.42914 1.7602 6.42603 1.25 9 1.25H15C17.0433 1.25 18.7171 1.57205 19.99 2.37102C21.2935 3.18925 22.0815 4.44655 22.4611 6.10242C22.5187 6.3541 22.4429 6.61776 22.2603 6.80033L6.80032 22.2603C6.61774 22.4429 6.35408 22.5187 6.10241 22.461C4.44654 22.0814 3.18924 21.2935 2.37102 19.99C1.57205 18.7171 1.25 17.0433 1.25 15V9C1.25 6.42603 1.7602 4.42914 3.09467 3.09467Z" fill="#7D7D7D"/>
<path fill-rule="evenodd" clip-rule="evenodd" d="M13.4697 13.4697C13.7626 13.1768 14.2375 13.1768 14.5304 13.4697L20.9104 19.8497C21.0514 19.9907 21.1305 20.1822 21.1301 20.3817C21.1296 20.5812 21.0497 20.7723 20.908 20.9127C19.5694 22.2395 17.5748 22.75 15 22.75H9.00005C7.918 22.75 6.96024 22.6565 6.10342 22.4613C5.83723 22.4006 5.62502 22.2001 5.54939 21.9378C5.47376 21.6754 5.54666 21.3927 5.73971 21.1997L13.4697 13.4697ZM7.85337 21.2073C8.21131 21.2356 8.59271 21.25 9.00005 21.25H15C16.9643 21.25 18.3252 20.9289 19.2611 20.3217L14 15.0607L7.85337 21.2073Z" fill="#7D7D7D"/>
<path fill-rule="evenodd" clip-rule="evenodd" d="M9.11999 6.53247C8.12403 6.53247 7.21594 7.09228 6.97057 8.14953L6.9705 8.14986C6.66774 9.45169 7.48049 10.6481 8.39513 11.5149C8.80833 11.9038 9.4438 11.8985 9.84157 11.518L9.84417 11.5155L9.84418 11.5155C10.7551 10.6525 11.5641 9.45377 11.269 8.14771C11.023 7.09164 10.1154 6.53247 9.11999 6.53247ZM9.11999 5.03247C10.664 5.03247 12.296 5.93766 12.7306 7.81042L12.7314 7.81412L12.7314 7.81412C13.2149 9.94649 11.8655 11.6665 10.877 12.6033C9.89486 13.5413 8.35183 13.5356 7.36549 12.6057L7.3642 12.6044C6.37917 11.6713 5.01245 9.94811 5.50941 7.81042M9.11999 5.03247C7.57604 5.03247 5.94423 5.93756 5.50948 7.81009L9.11999 5.03247Z" fill="#7D7D7D"/>
<path fill-rule="evenodd" clip-rule="evenodd" d="M8.0946 8.69995C8.0946 8.14767 8.54232 7.69995 9.0946 7.69995H9.10359C9.65587 7.69995 10.1036 8.14767 10.1036 8.69995C10.1036 9.25224 9.65587 9.69995 9.10359 9.69995H9.0946C8.54232 9.69995 8.0946 9.25224 8.0946 8.69995Z" fill="#7D7D7D"/>
</svg>
