<svg width="20" height="20" viewBox="0 0 20 20" fill="none" xmlns="http://www.w3.org/2000/svg">
<path fill-rule="evenodd" clip-rule="evenodd" d="M9.58333 2.29166C5.55624 2.29166 2.29163 5.55625 2.29163 9.58332C2.29163 13.6104 5.55624 16.875 9.58333 16.875C13.6104 16.875 16.875 13.6104 16.875 9.58332C16.875 5.55625 13.6104 2.29166 9.58333 2.29166ZM1.04163 9.58332C1.04163 4.86589 4.86588 1.04166 9.58333 1.04166C14.3008 1.04166 18.125 4.86589 18.125 9.58332C18.125 14.3008 14.3008 18.125 9.58333 18.125C4.86588 18.125 1.04163 14.3008 1.04163 9.58332Z" fill="#7D7D7D"/>
<path fill-rule="evenodd" clip-rule="evenodd" d="M16.2248 16.2247C16.4689 15.9806 16.8646 15.9806 17.1087 16.2247L18.7754 17.8914C19.0194 18.1355 19.0194 18.5312 18.7754 18.7753C18.5313 19.0193 18.1356 19.0193 17.8915 18.7753L16.2248 17.1086C15.9807 16.8645 15.9807 16.4688 16.2248 16.2247Z" fill="#7D7D7D"/>
</svg>
