<svg width="24" height="24" viewBox="0 0 24 24" fill="none" xmlns="http://www.w3.org/2000/svg">
<path fill-rule="evenodd" clip-rule="evenodd" d="M5.05849 2.82348C4.66764 2.96076 4.29335 3.22139 4.03614 3.47459L4.03046 3.48018L4.02467 3.48565C3.56991 3.91466 3.25506 4.38365 3.05792 4.88469L3.05637 4.88865C2.85415 5.39419 2.75 5.94898 2.75 6.5401C2.75 7.46277 2.96266 8.45336 3.41075 9.51794C3.86507 10.5872 4.49483 11.678 5.28758 12.7804C6.0935 13.8871 6.99752 14.947 8.00038 15.9598C9.01353 16.963 10.0741 17.8676 11.1922 18.6843C12.291 19.4843 13.3917 20.1147 14.484 20.5801C15.5587 21.038 16.5486 21.2501 17.45 21.2501C18.0548 21.2501 18.6064 21.1383 19.1115 20.9278L19.1156 20.9261C19.3484 20.8307 19.7481 20.6115 20.1365 20.2868C20.5265 19.9607 20.8554 19.5698 21.0219 19.1459C21.1679 18.7742 21.22 18.5527 21.22 18.3301C21.22 18.169 21.1879 18.0177 21.1189 17.8419C21.072 17.7401 20.9913 17.6363 20.8331 17.5267L20.8258 17.5217L17.5222 15.1762C17.3028 15.0274 17.1216 14.9279 16.966 14.8643C16.8238 14.8061 16.7201 14.7901 16.64 14.7901C16.5438 14.7901 16.4472 14.8133 16.32 14.8907L16.2988 14.9036L16.2769 14.915C16.1389 14.9871 15.96 15.1208 15.7403 15.3404L15.7368 15.3439L14.9782 16.0925C14.7355 16.3342 14.4185 16.4801 14.04 16.4801C13.8919 16.4801 13.7163 16.4634 13.5267 16.3923L13.5105 16.3863L13.4946 16.3795C13.4533 16.3618 13.415 16.3442 13.3878 16.3317L13.38 16.3281C13.3476 16.3133 13.3366 16.3085 13.3315 16.3065L13.2944 16.2916L13.2591 16.2729C12.8536 16.0583 12.3777 15.7214 11.8355 15.2626L11.8346 15.2618C11.2851 14.7953 10.7507 14.2913 10.2046 13.7554L10.1996 13.7504L10.1946 13.7454C9.66123 13.2017 9.1705 12.6597 8.71287 12.1309L8.70742 12.1246C8.25416 11.5889 7.90702 11.1142 7.69158 10.7192L7.6596 10.6606L7.63858 10.5976C7.63857 10.5976 7.63602 10.5905 7.62302 10.5598C7.62193 10.5572 7.62075 10.5545 7.61951 10.5515C7.60704 10.5221 7.58736 10.4757 7.56775 10.4234L7.55275 10.3834L7.54239 10.342C7.51008 10.2128 7.49 10.0811 7.49 9.9301C7.49 9.59088 7.6056 9.26709 7.86359 9.00589L8.62454 8.2149L8.62967 8.20977C8.75032 8.08911 8.8993 7.93777 9.01881 7.75928C9.14206 7.57521 9.18311 7.43617 9.18033 7.34233C9.17892 7.29462 9.17303 7.26279 9.15954 7.21482C9.15144 7.18598 9.14217 7.15678 9.12728 7.10989L9.12329 7.0973C9.10724 7.04672 9.08709 6.98268 9.06679 6.90876C8.86154 6.16155 8.26806 5.27085 7.65954 4.51635C7.36503 4.1512 7.08452 3.83907 6.87774 3.61842C6.77459 3.50834 6.69038 3.42166 6.6327 3.36324C6.60388 3.33404 6.58173 3.31194 6.56721 3.29755L6.55128 3.28184L6.54783 3.27847L6.49502 3.22719L6.45336 3.16701C6.36599 3.04081 6.28793 2.97191 6.04359 2.83994C5.7732 2.6939 5.44404 2.68806 5.05849 2.82348ZM7.64264 2.25158C7.38157 1.89728 7.09316 1.70201 6.75641 1.52013C6 1.1116 5.20416 1.18248 4.56141 1.40823C3.92717 1.631 3.37226 2.02482 2.98966 2.39992C2.38787 2.96909 1.94488 3.6176 1.66286 4.33352C1.3856 5.02742 1.25 5.77194 1.25 6.5401C1.25 7.69711 1.5172 8.88614 2.02877 10.1011L2.0297 10.1033C2.5351 11.2931 3.22475 12.4814 4.07115 13.658L4.07368 13.6615C4.92677 14.8333 5.8815 15.952 6.93711 17.0179L6.94224 17.023C8.00824 18.0787 9.12671 19.0332 10.3076 19.8957L10.3086 19.8964C11.4895 20.7562 12.6885 21.4456 13.896 21.9601C15.1213 22.4822 16.3114 22.7501 17.45 22.7501C18.2445 22.7501 18.9922 22.6022 19.6865 22.3132C20.0635 22.1584 20.5946 21.859 21.0987 21.4375C21.602 21.0167 22.1281 20.4326 22.4181 19.6943C22.5914 19.253 22.72 18.8275 22.72 18.3301C22.72 17.9352 22.6338 17.5901 22.5064 17.2716L22.5016 17.2597L22.4965 17.248C22.3234 16.8546 22.0455 16.5426 21.6909 16.2962L18.378 13.9442L18.3717 13.9399C18.0939 13.751 17.8169 13.5917 17.534 13.4759C17.2362 13.3541 16.9399 13.2901 16.64 13.2901C16.2447 13.2901 15.8882 13.402 15.5612 13.5967C15.2482 13.7639 14.955 14.0047 14.6815 14.2779L13.9918 14.9585C13.9753 14.951 13.955 14.9418 13.933 14.9323C13.6606 14.7842 13.2858 14.5248 12.8048 14.1179C12.2961 13.6859 11.7923 13.2117 11.2604 12.6898C10.7568 12.1762 10.29 11.661 9.84989 11.1525C9.44802 10.6773 9.183 10.308 9.03333 10.0456C9.02321 10.0198 9.01385 9.99753 9.00688 9.98106L9.69543 9.26533L9.69697 9.26379C9.8186 9.1422 10.0589 8.90199 10.2652 8.59384C10.4716 8.28553 10.6956 7.83458 10.6797 7.29787C10.6709 7.0006 10.5853 6.73664 10.538 6.59077C10.5273 6.55808 10.5187 6.53132 10.5132 6.51144C10.2207 5.44641 9.45414 4.35211 8.82711 3.57467C8.50385 3.17386 8.19769 2.83328 7.97225 2.59272C7.8593 2.47219 7.76601 2.37613 7.70021 2.30947C7.67773 2.2867 7.65844 2.26733 7.64264 2.25158Z" fill="#7D7D7D"/>
</svg>
