<svg width="24" height="24" viewBox="0 0 24 24" fill="none" xmlns="http://www.w3.org/2000/svg">
<path d="M17.3066 7.49128C13.0228 4.88498 15.0316 1.20638 15.1179 1.05347C15.2429 0.835875 15.2425 0.568172 15.1168 0.350953C14.9911 0.133734 14.7592 0 14.5082 0C12.3031 0 10.5763 0.626531 9.3759 1.86225C7.3247 3.97373 7.41985 7.26 7.46044 8.66334C7.46494 8.81878 7.46884 8.95312 7.46884 9.05288C7.46884 10.0948 7.63599 11.0567 7.78351 11.9054C7.87857 12.4523 7.96065 12.9246 7.97523 13.296C7.99084 13.6935 7.91827 13.7846 7.91518 13.7882C7.90482 13.8005 7.81857 13.8464 7.58537 13.8464C7.3194 13.8464 7.12332 13.7595 6.9496 13.5647C6.27104 12.8039 6.22412 10.7263 6.35387 9.59597C6.37707 9.39666 6.31402 9.19697 6.18057 9.04716C6.04716 8.89734 5.8561 8.81166 5.65548 8.81166C3.82993 8.81166 2.46582 11.797 2.46582 14.4663C2.46582 15.7211 2.7182 16.9503 3.21596 18.1197C3.69718 19.2502 4.38338 20.2706 5.25559 21.1523C7.07209 22.9887 9.46707 24 11.9994 24C14.542 24 16.9364 23.003 18.7415 21.1927C20.542 19.387 21.5335 16.9981 21.5335 14.4662C21.5335 11.2355 19.0057 8.52492 17.3066 7.49128ZM11.9994 22.5938C7.59399 22.5938 3.87212 18.8718 3.87212 14.4662C3.87212 13.3948 4.12777 12.2701 4.57351 11.3806C4.67762 11.1728 4.78445 10.9946 4.88987 10.8444C4.90163 12.0044 5.08538 13.5857 5.8989 14.4993C6.33774 14.9921 6.92091 15.2526 7.58541 15.2526C8.20618 15.2526 8.67924 15.0645 8.99134 14.6934C9.57484 13.9997 9.39573 12.9692 9.16904 11.6646C9.03127 10.8719 8.87513 9.97345 8.87513 9.05283C8.87513 8.93269 8.87096 8.78902 8.86618 8.62256C8.82769 7.29328 8.74758 4.52723 10.3846 2.84212C11.1195 2.08561 12.1455 1.6252 13.4434 1.46766C13.2969 1.95422 13.1706 2.57189 13.1657 3.26348C13.1549 4.7873 13.7378 6.96609 16.5758 8.69269C17.9489 9.52805 20.1273 11.8342 20.1273 14.4662C20.1272 18.9478 16.4811 22.5938 11.9994 22.5938Z" fill="#4F4F4F"/>
</svg>
