<svg width="28" height="36" viewBox="0 0 28 36" fill="none" xmlns="http://www.w3.org/2000/svg">
<path d="M0 0H28V32.5536C28 34.0863 28 34.8527 27.5019 35.1417C27.0039 35.4308 26.3385 35.0506 25.0077 34.2901L14.9923 28.567C14.5078 28.2902 14.2656 28.1518 14 28.1518C13.7344 28.1518 13.4922 28.2902 13.0077 28.567L2.99228 34.2901C1.66152 35.0506 0.996146 35.4308 0.498073 35.1417C0 34.8527 0 34.0863 0 32.5536V0Z" fill="#FFE9EE"/>
<path d="M18.4226 10.2427C14.8527 8.07082 16.5267 5.00531 16.5986 4.87789C16.7028 4.69656 16.7025 4.47348 16.5977 4.29246C16.493 4.11145 16.2997 4 16.0906 4C14.2529 4 12.814 4.52211 11.8136 5.55188C10.1043 7.31145 10.1836 10.05 10.2174 11.2195C10.2211 11.349 10.2244 11.4609 10.2244 11.5441C10.2244 12.4123 10.3637 13.2139 10.4866 13.9212C10.5658 14.3769 10.6342 14.7705 10.6464 15.08C10.6594 15.4112 10.5989 15.4871 10.5963 15.4902C10.5877 15.5004 10.5158 15.5387 10.3215 15.5387C10.0998 15.5387 9.93644 15.4663 9.79168 15.3039C9.22621 14.6699 9.1871 12.9386 9.29523 11.9966C9.31457 11.8305 9.26203 11.6641 9.15082 11.5393C9.03964 11.4145 8.88042 11.343 8.71324 11.343C7.19194 11.343 6.05518 13.8309 6.05518 16.0552C6.05518 17.1009 6.26549 18.1252 6.6803 19.0998C7.08131 20.0419 7.65315 20.8922 8.37999 21.627C9.89375 23.1572 11.8896 24 13.9999 24C16.1187 24 18.114 23.1691 19.6183 21.6605C21.1187 20.1559 21.945 18.1651 21.945 16.0552C21.945 13.3629 19.8385 11.1041 18.4226 10.2427ZM13.9999 22.8281C10.3287 22.8281 7.2271 19.7265 7.2271 16.0552C7.2271 15.1623 7.44014 14.2251 7.81159 13.4839C7.89835 13.3107 7.98737 13.1621 8.07522 13.037C8.08503 14.0037 8.23815 15.3214 8.91609 16.0828C9.28179 16.4934 9.76777 16.7105 10.3215 16.7105C10.8388 16.7105 11.2331 16.5537 11.4931 16.2445C11.9794 15.6664 11.8301 14.8077 11.6412 13.7205C11.5264 13.0599 11.3963 12.3112 11.3963 11.544C11.3963 11.4439 11.3928 11.3242 11.3888 11.1855C11.3568 10.0777 11.29 7.7727 12.6542 6.36844C13.2666 5.73801 14.1216 5.35434 15.2032 5.22305C15.0811 5.62852 14.9758 6.14324 14.9718 6.71957C14.9628 7.98941 15.4485 9.80508 17.8135 11.2439C18.9578 11.94 20.7731 13.8618 20.7731 16.0552C20.7731 19.7898 17.7346 22.8281 13.9999 22.8281Z" fill="url(#paint0_linear_67_1505)"/>
<defs>
<linearGradient id="paint0_linear_67_1505" x1="23.8518" y1="11.7" x2="5.41862" y2="16.4073" gradientUnits="userSpaceOnUse">
<stop stop-color="#D72339"/>
<stop offset="1" stop-color="#F23B51"/>
</linearGradient>
</defs>
</svg>
