<svg width="24" height="24" viewBox="0 0 24 24" fill="none" xmlns="http://www.w3.org/2000/svg">
<path d="M0 2C0 1.04305 0 0.564572 0.32295 0.267464C0.6459 -0.0296452 1.09656 0.00798305 1.99787 0.0832396C7.63134 0.553615 12.943 3.00187 16.9705 7.02942C20.5217 10.5806 22.8451 15.1301 23.6675 20.0183C23.9552 21.7282 24.099 22.5831 23.4998 23.2915C22.9006 23.9999 21.9338 24 20 24L4.00001 24C2.11439 24 1.17158 24 0.585788 23.4142C0 22.8284 0 21.8856 0 20V2Z" fill="url(#paint0_linear_16_15084)"/>
<path d="M24 2C24 1.04305 24 0.564572 23.677 0.267464C23.3541 -0.0296452 22.9034 0.00798305 22.0021 0.0832396C16.3687 0.553615 11.057 3.00187 7.02946 7.02942C3.47826 10.5806 1.15487 15.1301 0.332499 20.0183C0.0448303 21.7282 -0.0990047 22.5831 0.500183 23.2915C1.09937 23.9999 2.06625 24 4 24L20 24C21.8856 24 22.8284 24 23.4142 23.4142C24 22.8284 24 21.8856 24 20V2Z" fill="url(#paint1_linear_16_15084)"/>
<circle cx="3.05421" cy="11.7817" r="1.30909" fill="white"/>
<circle cx="20.9458" cy="11.7817" r="1.30909" fill="white"/>
<path fill-rule="evenodd" clip-rule="evenodd" d="M17.9529 17.9529C19.5896 16.3162 20.5091 14.0964 20.5091 11.7817H20.9454C20.9454 14.2121 19.98 16.5429 18.2615 18.2614C16.543 19.9799 14.2121 20.9454 11.7818 20.9454C9.35145 20.9454 7.02065 19.9799 5.30213 18.2614C3.58362 16.5429 2.61816 14.2121 2.61816 11.7817H3.05453C3.05453 14.0964 3.97401 16.3162 5.61069 17.9529C7.24737 19.5895 9.46718 20.509 11.7818 20.509C14.0964 20.509 16.3162 19.5895 17.9529 17.9529Z" fill="white"/>
<defs>
<linearGradient id="paint0_linear_16_15084" x1="24" y1="17.8909" x2="0" y2="0" gradientUnits="userSpaceOnUse">
<stop stop-color="#D72339"/>
<stop offset="1" stop-color="#FF813B"/>
</linearGradient>
<linearGradient id="paint1_linear_16_15084" x1="-2.88" y1="9.24" x2="24" y2="17.88" gradientUnits="userSpaceOnUse">
<stop stop-color="#D72339"/>
<stop offset="1" stop-color="#F23B51"/>
</linearGradient>
</defs>
</svg>
