<svg width="24" height="24" viewBox="0 0 24 24" fill="none" xmlns="http://www.w3.org/2000/svg">
<path fill-rule="evenodd" clip-rule="evenodd" d="M16.1035 2.81006C15.9376 2.72286 15.5098 2.66973 14.7794 3.19776L11.7015 5.41623C11.3672 5.66169 10.9511 5.79906 10.5683 5.85759C10.1827 5.91655 9.7485 5.90815 9.36141 5.78428L9.35571 5.78245L6.4062 4.81259C5.58662 4.54385 5.19685 4.71536 5.05718 4.85339C4.91657 4.99236 4.74008 5.38213 4.99607 6.20695C4.99601 6.20675 4.99613 6.20714 4.99607 6.20695L6.00533 9.43474C6.00525 9.4345 6.0054 9.43497 6.00533 9.43474C6.1389 9.85959 6.12738 10.3313 6.04141 10.7404C5.9553 11.1503 5.77664 11.5842 5.48845 11.9191L3.50941 14.2181C3.50924 14.2182 3.50957 14.2179 3.50941 14.2181C2.7731 15.0773 2.82428 15.5393 2.88693 15.6669C2.94974 15.7948 3.28368 16.1176 4.41236 16.0609L7.75182 15.8909C8.2159 15.8677 8.68897 16.0043 9.0812 16.2084C9.47324 16.4125 9.85993 16.723 10.1083 17.1263C10.1082 17.1261 10.1084 17.1265 10.1083 17.1263L11.868 19.9758C11.868 19.9758 11.868 19.9758 11.868 19.9758C12.4636 20.94 12.9181 21.0292 13.0569 21.0083C13.197 20.9872 13.6061 20.7662 13.8945 19.6696C13.8945 19.6697 13.8945 19.6694 13.8945 19.6696L14.6632 16.735C14.6634 16.734 14.6636 16.733 14.6639 16.7321C14.7747 16.2993 15.0344 15.9053 15.3234 15.6037C15.6134 15.3009 15.9944 15.0269 16.4148 14.8945L19.6441 13.8848C19.6438 13.8849 19.6444 13.8847 19.6441 13.8848C20.4694 13.624 20.6908 13.2558 20.725 13.0606C20.7588 12.8673 20.6782 12.4493 19.9882 11.9286L19.9869 11.9276L17.5102 10.0501C17.1771 9.80283 16.9226 9.44434 16.7537 9.09555C16.5837 8.7446 16.4622 8.32427 16.4701 7.91552L16.5401 4.12611C16.5577 3.2231 16.2704 2.89781 16.1035 2.81006ZM18.0398 4.15382C18.062 3.00714 17.7043 1.957 16.8015 1.48235C15.8975 1.00712 14.8305 1.31006 13.9011 1.98179C13.9009 1.98191 13.9012 1.98168 13.9011 1.98179L10.8214 4.20152L10.8146 4.20652C10.7296 4.26927 10.5623 4.34107 10.3416 4.37482C10.1237 4.40814 9.93396 4.39198 9.82079 4.35634L6.87425 3.38748C5.80417 3.03645 4.71808 3.07958 4.00278 3.78651C3.28844 4.4925 3.22998 5.57757 3.56373 6.65236L4.57455 9.88517C4.61074 10.0001 4.62245 10.1989 4.57347 10.432C4.52459 10.6646 4.43325 10.8457 4.35144 10.9408L2.37156 13.2407L2.37052 13.2419C1.54735 14.2022 1.05566 15.3407 1.5405 16.328C2.0252 17.3151 3.22627 17.6223 4.48758 17.559L7.82739 17.389C7.96331 17.3822 8.1709 17.4256 8.38867 17.539C8.60643 17.6523 8.75956 17.7966 8.83119 17.913L10.5918 20.764C11.2563 21.8398 12.1918 22.6556 13.2805 22.4916C14.3679 22.3277 15.0237 21.2737 15.3453 20.0506L16.1155 17.11L16.1168 17.105C16.1464 16.9888 16.2412 16.8139 16.4066 16.6412C16.5714 16.4692 16.7452 16.3632 16.8648 16.3254C16.8647 16.3255 16.8649 16.3254 16.8648 16.3254L20.0938 15.3158L20.0958 15.3151C21.1699 14.976 22.0292 14.309 22.2025 13.3193C22.3761 12.328 21.7922 11.4112 20.8928 10.732C20.8924 10.7318 20.8921 10.7315 20.8918 10.7313L18.4131 8.85228L18.4054 8.84653C18.3206 8.78395 18.2016 8.64405 18.1037 8.44185C18.0061 8.2403 17.9677 8.05561 17.9698 7.94436L18.0398 4.15382C18.0398 4.15356 18.0398 4.15408 18.0398 4.15382Z" fill="url(#paint0_linear_42_803)"/>
<path fill-rule="evenodd" clip-rule="evenodd" d="M18.3496 18.4396C18.6425 18.1467 19.1173 18.1467 19.4102 18.4396L22.4402 21.4696C22.7331 21.7625 22.7331 22.2374 22.4402 22.5303C22.1473 22.8232 21.6724 22.8232 21.3795 22.5303L18.3496 19.5003C18.0567 19.2074 18.0567 18.7325 18.3496 18.4396Z" fill="url(#paint1_linear_42_803)"/>
<defs>
<linearGradient id="paint0_linear_42_803" x1="24.7391" y1="9.43693" x2="1.27141" y2="16.8464" gradientUnits="userSpaceOnUse">
<stop stop-color="#D72339"/>
<stop offset="1" stop-color="#F23B51"/>
</linearGradient>
<linearGradient id="paint1_linear_42_803" x1="23.2034" y1="19.964" x2="18.1299" y2="21.5948" gradientUnits="userSpaceOnUse">
<stop stop-color="#D72339"/>
<stop offset="1" stop-color="#F23B51"/>
</linearGradient>
</defs>
</svg>
