<svg width="24" height="24" viewBox="0 0 24 24" fill="none" xmlns="http://www.w3.org/2000/svg">
<path fill-rule="evenodd" clip-rule="evenodd" d="M1.25 12C1.25 6.08579 6.08579 1.25 12 1.25C17.9142 1.25 22.75 6.08579 22.75 12C22.75 17.9142 17.9142 22.75 12 22.75C10.1784 22.75 8.35754 22.2746 6.80033 21.4085L3.88903 22.2403C2.58692 22.6123 1.37381 21.4279 1.71458 20.1173L2.50174 17.0897C1.73173 15.5613 1.25 13.8344 1.25 12ZM12 2.75C6.91421 2.75 2.75 6.91421 2.75 12C2.75 13.6595 3.21092 15.2392 3.96176 16.6471C4.05036 16.8132 4.07324 17.0065 4.02587 17.1887L3.16631 20.4947C3.11763 20.6819 3.29093 20.8512 3.47695 20.798L6.69396 19.8789C6.89356 19.8218 7.10787 19.8501 7.28587 19.9569C8.66797 20.7861 10.3344 21.25 12 21.25C17.0858 21.25 21.25 17.0858 21.25 12C21.25 6.91421 17.0858 2.75 12 2.75Z" fill="#7D7D7D"/>
<path fill-rule="evenodd" clip-rule="evenodd" d="M9.11793 8.25C9.01591 8.25 8.88138 8.28575 8.70626 8.45788L8.70058 8.46347L8.69478 8.46893C8.5312 8.62301 8.42522 8.784 8.36003 8.94945L8.35847 8.95341C8.28818 9.12886 8.25 9.32603 8.25 9.543C8.25 9.89352 8.33075 10.2845 8.5151 10.722C8.7057 11.1698 8.97286 11.6336 9.3151 12.1089C9.66503 12.5886 10.0581 13.0489 10.4951 13.4898C10.9369 13.9264 11.3987 14.3196 11.885 14.6743C12.3577 15.0178 12.8267 15.2854 13.2874 15.4814C13.7304 15.6699 14.1217 15.75 14.4629 15.75C14.6834 15.75 14.878 15.7096 15.0537 15.6365L15.0577 15.6349C15.2176 15.5694 15.371 15.4639 15.5257 15.2938C15.6038 15.2076 15.6626 15.1172 15.7093 15.0184C15.7393 14.955 15.75 14.8978 15.75 14.8485C15.75 14.8403 15.7492 14.8333 15.7474 14.8248C15.7472 14.8239 15.747 14.8228 15.7467 14.8217L14.2612 13.7686C14.1977 13.7258 14.1504 13.6992 14.1158 13.6827C14.0963 13.6948 14.0522 13.7265 13.9834 13.7952L13.9798 13.7987L13.6382 14.1354C13.5409 14.2316 13.439 14.2852 13.3874 14.3101C13.3266 14.3395 13.2704 14.3596 13.2308 14.3724C13.1893 14.3858 13.1528 14.3955 13.127 14.4018C13.1137 14.4051 13.1023 14.4077 13.0932 14.4097L13.0813 14.4123L13.0767 14.4132L13.0747 14.4136L13.0734 14.4139C13.0733 14.4139 13.073 14.414 12.9261 13.6785L12.591 14.3495L12.5883 14.3481L12.5824 14.3451L12.5619 14.3347C12.5446 14.3259 12.5203 14.3134 12.4906 14.2979C12.4315 14.2671 12.3499 14.2235 12.2596 14.1729C12.0962 14.0813 11.8449 13.9337 11.6669 13.7834L11.666 13.7826C11.4076 13.5635 11.1589 13.3291 10.9095 13.0847L10.9044 13.0797L10.8994 13.0747C10.6517 12.8225 10.4246 12.572 10.2142 12.3292L10.2087 12.3229C10.189 12.2996 10.1629 12.2734 10.113 12.2266C10.1081 12.222 10.1026 12.2169 10.0966 12.2113C10.0537 12.1713 9.98533 12.1076 9.92409 12.0403C9.75854 11.8585 9.57475 11.5777 9.57574 11.1702C9.57675 10.7542 9.80738 10.4348 9.92379 10.2902C10.0514 10.1317 10.2216 9.97757 10.1969 10.0023C10.2486 9.95064 10.2832 9.90836 10.305 9.87754C10.2891 9.84483 10.2637 9.80074 10.2222 9.74316L10.2191 9.73892L9.17018 8.26267C9.16984 8.26251 9.16947 8.26233 9.16907 8.26215L9.15879 8.25741C9.15372 8.25498 9.13926 8.25 9.11793 8.25ZM12.9261 13.6785L12.591 14.3495L12.821 14.4643L13.0734 14.4139L12.9261 13.6785ZM12.9254 12.7319L12.8656 12.7908C12.7597 12.7277 12.6766 12.6726 12.6354 12.6379C12.4178 12.4534 12.1996 12.2487 11.9644 12.0183C11.7463 11.796 11.5431 11.5721 11.35 11.3495C11.2822 11.2699 11.2139 11.2031 11.1621 11.1541C11.1645 11.1517 11.1668 11.1494 11.1692 11.1471C11.1824 11.1341 11.1948 11.1224 11.207 11.111L11.2265 11.0928C11.2318 11.0879 11.2442 11.0763 11.2568 11.0637C11.3962 10.9245 11.5263 10.7667 11.6261 10.5931C11.7496 10.3866 11.8239 10.1488 11.8239 9.894C11.8239 9.68508 11.7711 9.49113 11.7025 9.32953C11.6358 9.16832 11.5468 9.01591 11.4405 8.86811L10.3984 7.40152C10.2363 7.16939 10.0272 7.00699 9.80199 6.90222C9.58316 6.79833 9.34717 6.75 9.11793 6.75C8.55564 6.75 8.06127 6.99093 7.66055 7.38246C7.34979 7.67664 7.11549 8.01715 6.96524 8.39757C6.81974 8.76155 6.75 9.14869 6.75 9.543C6.75 10.1282 6.88544 10.7179 7.13342 11.3059L7.13434 11.3081C7.37613 11.8765 7.70329 12.4377 8.09927 12.9874L8.10181 12.9909C8.49899 13.5356 8.94288 14.0548 9.43271 14.5487L9.43784 14.5538C9.93256 15.043 10.4523 15.4859 11.0015 15.8865L11.0024 15.8871C11.5571 16.2904 12.1244 16.6167 12.7001 16.8616C13.2936 17.1142 13.8848 17.25 14.4629 17.25C14.8727 17.25 15.2633 17.1737 15.6279 17.0223C16.0169 16.8627 16.3495 16.6176 16.6359 16.3024C16.819 16.1006 16.9589 15.8847 17.0653 15.6596C17.1886 15.399 17.25 15.1232 17.25 14.8485C17.25 14.6074 17.1966 14.3997 17.1241 14.2186L17.1194 14.2067L17.1142 14.1951C17.0015 13.9392 16.8225 13.7428 16.6106 13.5954L15.1158 12.5358L15.1096 12.5315C14.9691 12.4361 14.8185 12.3484 14.6564 12.2822C14.4796 12.21 14.2933 12.168 14.0979 12.168C13.8407 12.168 13.611 12.2409 13.4096 12.3589C13.2241 12.4594 13.0627 12.5951 12.9254 12.7319Z" fill="#7D7D7D"/>
</svg>
